<?xml version="1.0" encoding="utf-8"?>
<svg xmlns="http://www.w3.org/2000/svg" viewBox="19.7859 2.3628 1958.4982 239.2056" width="1958.5px" height="239.206px" preserveAspectRatio="none"><g id="object-0" transform="matrix(1, 0, 0, 1, 0, -2.842170943040401e-14)"><path fill="#21C45D" opacity="1.000000" stroke="none" d=" M200.182922,18.766500 C220.832840,31.112400 236.506561,47.758026 246.869354,68.982193 C257.132782,90.002846 260.893677,112.270439 258.214661,135.734756 C255.780014,157.058792 248.582977,176.499634 235.717773,193.412781 C216.354050,218.869217 190.784103,234.937225 158.902298,239.963333 C131.291901,244.316055 105.035362,239.841049 80.562302,226.233383 C62.202980,216.025116 47.727955,201.615051 36.910618,183.643646 C23.839039,161.927155 18.137686,138.182098 20.196522,113.055435 C22.529045,84.588585 33.381897,59.646660 53.527691,38.831730 C71.111618,20.663755 92.192467,9.275846 116.840889,4.657285 C136.143005,1.040501 155.503891,1.434197 174.276718,7.749151 C183.034439,10.695145 191.366501,14.906549 200.182922,18.766500 M72.089035,104.576599 C67.212990,106.668312 62.267639,108.618813 57.510803,110.953407 C56.356308,111.520020 55.169407,113.324379 55.115356,114.606720 C54.863514,120.581337 55.003754,126.572495 55.003754,132.442108 C62.512413,135.580429 69.735092,138.554214 76.919113,141.618622 C81.287308,143.481903 83.091827,147.611710 81.556213,152.168976 C80.813438,154.373337 79.787880,156.480896 78.994392,158.669983 C77.089333,163.925781 72.952515,169.734390 74.014664,174.325500 C75.102776,179.028854 81.148804,182.724884 85.367149,186.476868 C86.587570,187.562363 89.261940,188.097366 90.797935,187.553116 C96.904587,185.389359 102.815125,182.675873 108.816833,180.211090 C113.934235,178.109482 117.829056,179.673218 120.028595,184.687439 C121.431976,187.886673 122.773926,191.112823 124.145668,194.325958 C129.145340,206.037079 129.155380,205.743744 142.134888,206.172531 C147.788391,206.359283 151.611435,205.522720 153.055817,199.318161 C153.874786,195.800018 155.721603,192.524475 157.070145,189.125626 C160.944580,179.360504 163.340744,176.365601 173.927902,181.635101 C174.668228,182.003586 175.488876,182.207581 176.261871,182.514023 C192.276993,188.862869 192.335846,188.917801 203.906677,176.290314 C204.993134,175.104645 205.492447,172.403107 204.949646,170.871216 C202.567734,164.148666 199.598206,157.636459 197.094299,150.953354 C196.552155,149.506378 196.364227,146.917130 197.201233,146.149521 C199.866425,143.705307 202.919693,141.538406 206.139221,139.877167 C211.557541,137.081360 219.146072,136.128448 222.207779,131.827621 C224.980392,127.932899 222.926636,120.602287 223.000519,114.786621 C223.002640,114.620056 223.065979,114.410484 222.989670,114.293358 C222.032196,112.823929 221.383850,110.682465 220.023788,110.028404 C214.483643,107.364120 208.730652,105.140137 203.043365,102.784698 C196.498367,100.074043 195.293884,97.146301 197.998611,90.388985 C198.678619,88.690117 199.390671,87.003525 200.040619,85.293289 C201.983307,80.181267 206.224503,74.522659 205.197983,70.089401 C204.103729,65.363625 197.888718,61.908535 194.166855,57.672417 C192.132812,55.357338 190.325851,55.355991 187.697769,56.527210 C181.622635,59.234619 175.430237,61.686546 169.237274,64.119560 C164.276642,66.068428 161.041031,64.568222 159.034546,59.706745 C156.632278,53.886227 154.079163,48.126328 151.768478,42.270290 C150.542053,39.162159 148.893265,37.495892 145.189957,37.872784 C141.232574,38.275536 137.192261,38.138962 133.207413,37.906906 C130.152664,37.729012 128.330627,38.539639 127.196220,41.641048 C125.095421,47.384560 122.552208,52.966362 120.189285,58.613857 C117.667526,64.640984 114.224930,66.043839 108.038948,63.560501 C102.480904,61.329247 96.882050,59.191525 91.388382,56.811317 C88.531914,55.573708 86.429131,55.956806 84.307037,58.288670 C81.283081,61.611549 77.795036,64.525230 74.910172,67.954361 C73.915176,69.137070 73.415627,71.590179 73.920868,73.031372 C75.941811,78.795998 78.196030,84.511902 80.849266,90.011696 C83.109528,94.696922 81.929131,101.626137 76.012436,102.945900 C74.891205,103.195992 73.847382,103.793060 72.089035,104.576599 z"/><path fill="#000000" opacity="1.000000" stroke="none" d=" M587.999023,73.185875 C587.999695,81.635429 587.999695,89.603661 587.999695,97.571899 C588.489380,97.771858 588.979065,97.971825 589.468750,98.171783 C590.286072,96.768707 591.210876,95.416382 591.901245,93.953392 C594.340576,88.783951 596.334473,83.366432 599.174377,78.432709 C603.477051,70.957596 610.712097,67.064522 618.868164,65.714111 C632.103943,63.522621 644.976746,64.665352 655.969788,73.515160 C665.938110,81.540031 671.330933,92.350517 673.753174,104.676620 C676.984497,121.119308 676.636780,137.434265 671.003479,153.399490 C661.863586,179.302231 639.481567,187.717880 615.928162,180.944321 C603.295105,177.311279 597.520264,166.695801 592.967896,155.365570 C592.200317,153.455078 591.266541,151.611343 589.917480,148.660263 C591.337585,171.805115 592.664551,193.432434 594.022888,215.570831 C583.747192,215.570831 574.843872,215.570831 565.468140,215.570831 C565.468140,166.713074 565.468140,117.712463 565.468140,68.355194 C572.741333,68.355194 579.975220,68.355194 587.623901,68.355194 C587.751343,69.834976 587.874878,71.269768 587.999023,73.185875 M593.954712,113.615578 C591.251099,127.589020 593.250427,140.319550 602.757629,151.623734 C611.565918,162.096848 630.753540,163.783615 638.977661,150.873428 C649.158997,134.890701 648.740906,117.758011 641.297180,101.273727 C636.001465,89.546501 621.812927,84.570808 609.857178,91.108917 C601.298157,95.789429 596.303162,103.355133 593.954712,113.615578 z"/><path fill="#000000" opacity="1.000000" stroke="none" d=" M1639.003662,175.766052 C1639.001343,126.161469 1639.001343,77.032188 1639.001343,27.451805 C1647.997437,27.451805 1656.683228,27.451805 1665.836182,27.451805 C1665.836182,55.345974 1665.836182,83.099678 1665.836182,112.447311 C1672.191772,107.669746 1677.840576,104.046669 1682.744263,99.601822 C1691.710449,91.475021 1699.908325,82.582603 1705.705566,71.795952 C1707.300781,68.827698 1709.488525,67.818687 1712.892456,67.916008 C1721.702637,68.167870 1730.524902,68.000473 1740.250000,68.000473 C1734.543335,81.097626 1727.116089,91.974960 1716.879883,101.122765 C1706.770996,110.156685 1694.796631,115.544121 1682.070435,119.865700 C1697.334839,118.519287 1710.806396,121.441101 1720.794556,133.486603 C1724.956543,138.505936 1728.563965,144.192719 1731.375488,150.076859 C1735.881104,159.506958 1739.514526,169.353943 1743.791748,179.689407 C1732.707642,179.689407 1722.786255,179.689407 1712.988892,179.689407 C1709.241455,170.923050 1705.992676,161.933990 1701.664673,153.498642 C1693.545044,137.672867 1684.332886,132.092453 1666.196533,134.380249 C1666.196533,149.287628 1666.196533,164.313919 1666.196533,179.968933 C1657.525024,179.968933 1649.580811,180.090652 1641.651367,179.804840 C1640.727905,179.771545 1639.885742,177.483871 1639.003662,175.766052 z"/><path fill="#000000" opacity="1.000000" stroke="none" d=" M376.109314,65.000015 C388.369354,64.497063 399.731781,65.910858 409.663300,72.920174 C422.236877,81.794136 428.009094,94.589256 429.950531,109.388550 C430.572693,114.131119 430.546326,118.955338 431.032928,123.720108 C431.471893,128.017914 429.527252,129.477112 425.519531,129.015579 C424.532867,128.901932 423.521698,128.986908 422.522125,129.001846 C400.077362,129.337326 377.632599,129.673737 355.188019,130.021973 C354.376282,130.034561 353.566437,130.169418 352.822723,130.240860 C349.959045,141.639038 359.140747,156.230774 371.506256,160.193756 C382.948700,163.860916 393.430878,162.753113 401.891815,153.452408 C403.805817,151.348434 404.580902,148.247726 406.197876,145.817139 C406.974731,144.649384 408.673309,143.036530 409.644531,143.224701 C417.035614,144.656815 424.350067,146.484467 431.635773,148.176727 C429.540741,166.316254 412.752747,180.094177 395.019775,182.123215 C380.320038,183.805176 366.027985,183.537918 352.378174,177.105347 C337.629028,170.154694 329.338257,157.974884 326.207092,142.529221 C323.059204,127.001137 323.897858,111.528648 329.954834,96.536430 C337.632904,77.531746 355.188721,65.550049 376.109314,65.000015 M354.850586,106.348488 C354.160553,108.339645 353.470551,110.330811 352.698059,112.560028 C370.741272,112.560028 387.724121,112.560028 405.014008,112.560028 C404.612274,110.654236 404.295380,109.234558 404.014954,107.807701 C401.297485,93.982529 393.133850,88.012077 380.247406,87.065216 C370.717957,86.365005 359.075745,92.959091 354.850586,106.348488 z"/><path fill="#000000" opacity="1.000000" stroke="none" d=" M1805.941772,130.000000 C1796.490479,130.000000 1787.531250,130.000000 1778.613647,130.000000 C1777.792725,144.074936 1785.807129,156.725677 1797.949463,160.441559 C1807.401245,163.334152 1816.818970,163.123718 1824.753052,156.842651 C1828.276611,154.053146 1830.088867,149.152039 1832.887939,145.364685 C1833.669434,144.307129 1835.374146,142.971588 1836.358643,143.178162 C1843.560547,144.689285 1850.686890,146.560776 1857.796631,148.308640 C1854.768677,167.088257 1842.239746,178.154526 1823.806030,181.745956 C1809.555786,184.522354 1795.275879,183.738556 1781.438843,178.269974 C1767.746826,172.858658 1758.662109,162.908661 1754.409790,149.338577 C1748.104492,129.217529 1749.025146,109.006569 1759.483765,90.357361 C1768.405640,74.448578 1782.624878,65.820305 1801.111938,65.030128 C1810.389526,64.633583 1819.535400,65.001007 1828.384033,68.685165 C1843.142090,74.829750 1851.024414,86.663597 1854.692383,101.256050 C1856.870117,109.920197 1856.799805,119.149452 1857.777344,128.478180 C1839.840698,129.009827 1823.137207,129.504913 1805.941772,130.000000 M1787.999268,94.503639 C1783.708862,99.867226 1780.214722,105.589363 1779.411011,112.718170 C1796.694214,112.718170 1813.582275,112.718170 1831.899048,112.718170 C1830.119141,107.549683 1829.230347,102.662117 1826.895020,98.607758 C1819.075806,85.033043 1801.728149,83.122437 1787.999268,94.503639 z"/><path fill="#000000" opacity="1.000000" stroke="none" d=" M792.360901,93.818695 C796.189819,105.243164 797.843567,116.571075 796.683899,128.676636 C770.551208,129.203217 744.552246,129.727127 718.575439,130.250580 C717.989258,147.018478 728.293945,160.879257 745.639404,161.985947 C758.608459,162.813446 767.975952,157.709824 772.917725,145.295975 C773.289062,144.363129 774.740112,143.038574 775.427185,143.178955 C782.942566,144.714706 790.405823,146.505981 798.082886,148.273804 C794.580566,164.102524 785.698425,174.831055 771.015137,179.766647 C755.404297,185.014023 739.363281,184.528503 723.819580,179.239792 C706.645203,173.396255 696.376404,160.809875 692.737427,143.265945 C688.577576,123.210884 689.984436,103.692116 701.995605,86.253265 C711.496643,72.458725 725.020081,65.610367 741.764038,64.981270 C753.866394,64.526573 765.406555,65.836090 775.875183,72.865555 C783.623474,78.068413 788.460022,85.247841 792.360901,93.818695 M743.500000,113.000000 C752.571411,113.000000 761.642822,113.000000 770.726196,113.000000 C770.072632,97.985626 761.742371,88.182800 748.420349,87.132011 C734.965149,86.070724 721.617188,94.778069 719.546631,113.000000 C727.223206,113.000000 734.861572,113.000000 743.500000,113.000000 z"/><path fill="#000000" opacity="1.000000" stroke="none" d=" M1058.902832,146.068771 C1052.736328,120.356445 1055.921753,97.156967 1074.788818,77.805183 C1082.190308,70.213554 1091.846558,66.377808 1102.120483,65.264275 C1115.602295,63.803062 1129.020752,64.760117 1140.871826,72.505966 C1152.517578,80.117653 1158.397217,91.667496 1160.808350,104.850403 C1162.194824,112.431160 1161.941406,120.311867 1162.489746,129.075378 C1148.628418,129.075378 1135.561401,129.075378 1122.494263,129.075378 C1109.571899,129.075378 1096.649536,129.075378 1083.349121,129.075378 C1084.431641,141.363235 1087.124756,151.371170 1097.207275,157.739349 C1108.306519,164.749832 1124.718018,163.408920 1132.844360,154.505066 C1135.009277,152.132889 1136.715820,149.076843 1137.776123,146.036041 C1138.845825,142.968689 1140.317383,142.775284 1143.005859,143.459808 C1148.255371,144.796326 1153.547241,146.019699 1158.879639,146.959793 C1162.904419,147.669357 1163.616089,149.565414 1162.417358,153.231476 C1158.181396,166.186874 1149.936523,175.448624 1136.895142,179.453903 C1116.307129,185.776932 1096.067383,185.278931 1077.493652,173.060364 C1067.961914,166.789948 1061.727295,157.717484 1058.902832,146.068771 M1135.973511,110.472374 C1135.326904,97.102661 1124.198486,85.886032 1109.511108,87.073235 C1096.494629,88.125359 1084.955811,100.437332 1085.518311,112.522720 C1085.966309,112.654984 1086.434937,112.913376 1086.904419,112.914589 C1102.198608,112.954018 1117.492798,113.000633 1132.786499,112.916779 C1133.829834,112.911057 1134.867554,111.899132 1135.973511,110.472374 z"/><path fill="#000000" opacity="1.000000" stroke="none" d=" M1455.741699,171.757568 C1443.652466,183.441956 1423.085938,186.639862 1408.493774,179.093933 C1400.312866,174.863312 1395.692627,167.787399 1394.447144,158.802582 C1392.819824,147.063889 1393.330200,135.420731 1404.012329,127.804420 C1409.499512,123.892105 1416.105225,120.967308 1422.640015,119.234016 C1434.203735,116.166862 1446.098022,114.345406 1457.856079,112.013222 C1462.082764,111.174881 1466.032715,109.735138 1466.916626,104.930107 C1468.037231,98.838036 1465.177490,92.493965 1460.609619,89.890648 C1445.137695,81.072960 1426.310059,89.551720 1421.356079,107.892082 C1414.348877,105.645164 1407.402954,103.220047 1400.332764,101.237457 C1396.988647,100.299683 1396.547852,98.742271 1397.583984,95.791664 C1403.502563,78.939049 1415.812256,69.378387 1432.852661,66.185844 C1444.069092,64.084457 1455.499146,63.998981 1466.828491,66.812729 C1483.964355,71.068672 1492.377075,83.581444 1493.846558,99.377068 C1494.951172,111.250092 1494.621948,123.253853 1495.016235,135.196594 C1495.262329,142.647446 1495.623169,150.095352 1496.012329,157.540405 C1496.391113,164.785583 1496.871704,172.025436 1497.328979,179.623871 C1489.238525,179.623871 1480.881104,179.623871 1472.261841,179.623871 C1471.379517,171.051315 1470.522095,162.720383 1469.510132,152.888550 C1464.539062,159.736252 1460.266968,165.621201 1455.741699,171.757568 M1463.042725,147.422607 C1468.624878,140.954010 1468.750732,133.360138 1467.600342,125.416023 C1463.412354,126.317795 1459.287109,127.277420 1455.131714,128.080887 C1450.948364,128.889725 1446.666870,129.277679 1442.552856,130.334869 C1437.815308,131.552292 1432.946899,132.765320 1428.609619,134.930328 C1419.580933,139.437057 1418.140991,150.653061 1425.270142,157.763916 C1429.930908,162.412659 1438.687378,163.327026 1446.146851,160.454300 C1452.898804,157.854050 1457.738770,152.976135 1463.042725,147.422607 z"/><path fill="#000000" opacity="1.000000" stroke="none" d=" M818.000000,115.000000 C818.000000,99.220268 818.000000,83.940536 818.000000,68.333633 C826.120544,68.333633 833.687622,68.333633 841.498535,68.333633 C841.498535,79.486076 841.498535,90.500313 841.498535,101.514542 C841.833191,101.750061 842.167847,101.985580 842.502563,102.221092 C843.331238,100.862457 844.346741,99.582161 844.955078,98.131149 C847.167664,92.853577 848.813538,87.293068 851.458191,82.251022 C857.659485,70.428055 868.200745,65.662804 881.105469,64.966621 C892.899902,64.330338 903.561951,66.744698 911.529175,76.112328 C917.800964,83.486626 921.389160,92.474770 921.777222,101.889648 C922.837463,127.609909 922.982910,153.367859 923.499512,179.561096 C913.642029,179.561096 904.624878,179.561096 895.000061,179.561096 C895.000061,177.437180 895.000061,175.487885 895.000061,173.538589 C894.999878,155.050644 895.375854,136.550842 894.793945,118.081238 C894.592529,111.689850 892.701904,105.107628 890.377930,99.076881 C885.182495,85.594528 867.090942,87.024094 859.721191,93.784157 C851.896729,100.961327 847.731079,110.211884 847.172729,120.455734 C846.215210,138.023804 846.329834,155.650436 846.004883,173.252670 C845.968445,175.227310 846.000000,177.203201 846.000000,179.588120 C836.710144,179.588120 827.808838,179.588120 818.000000,179.588120 C818.000000,158.293594 818.000000,136.896790 818.000000,115.000000 z"/><path fill="#000000" opacity="1.000000" stroke="none" d=" M1009.120239,115.909180 C1019.276733,118.666634 1028.815430,121.630447 1036.026245,129.468384 C1045.563721,139.835236 1043.480469,162.255829 1032.799194,171.235031 C1023.810669,178.791214 1013.315918,181.816040 1002.351379,182.734375 C987.302734,183.994781 972.236389,183.294632 958.397705,175.760300 C949.469971,170.899673 943.741394,163.619217 941.487000,153.741928 C941.213928,152.545563 941.949280,150.174545 942.824524,149.811401 C949.278687,147.133209 955.887085,144.826797 962.488770,142.387939 C967.044128,160.177322 987.358643,163.278885 999.776917,161.514740 C1003.600647,160.971542 1007.397827,159.522629 1010.937256,157.899780 C1014.504272,156.264297 1016.901062,152.958023 1015.803833,149.048767 C1015.009583,146.218811 1012.982361,142.421722 1010.608948,141.578705 C1001.052490,138.184372 991.184692,135.630463 981.360901,133.035141 C972.095886,130.587433 963.079590,127.794037 954.867065,122.552315 C940.626831,113.463364 940.286133,92.332924 948.321777,81.201988 C955.956848,70.626030 967.285583,66.454254 979.413818,65.283775 C993.270996,63.946434 1007.268982,64.329674 1020.136108,71.061012 C1029.018311,75.707687 1035.089478,82.681236 1038.275146,92.360069 C1039.503418,96.092331 1038.884277,97.819908 1035.232422,98.902832 C1029.087280,100.725044 1022.995850,102.728119 1016.867188,104.659706 C1013.073669,90.668602 1002.281616,83.887039 983.534363,86.740570 C978.182068,87.555244 973.031860,88.806694 970.434814,94.221924 C968.249634,98.778137 969.905396,104.443810 974.700134,106.125389 C983.492920,109.209114 992.586304,111.438034 1001.562744,113.994080 C1003.929810,114.668114 1006.327271,115.235123 1009.120239,115.909180 z"/><path fill="#000000" opacity="1.000000" stroke="none" d=" M1526.235596,85.275726 C1536.271362,71.589027 1549.978638,65.904228 1566.082397,65.007645 C1577.474854,64.373375 1588.550781,65.411530 1598.699951,71.310898 C1610.270874,78.036812 1616.729370,88.139366 1619.130859,101.420158 C1610.473999,104.093979 1602.201660,106.649063 1593.964844,109.193169 C1592.316895,105.103783 1591.215576,101.268990 1589.325562,97.873283 C1581.585205,83.967255 1559.880737,83.949471 1551.288940,95.678131 C1543.084106,106.878510 1541.792603,119.916023 1543.655884,133.491684 C1544.793091,141.777512 1547.207886,149.395599 1553.598022,154.973877 C1561.504272,161.875595 1570.689087,163.409470 1580.736084,160.157578 C1589.944824,157.177017 1595.055908,150.839386 1597.130127,141.550720 C1597.414795,140.276138 1599.634888,138.313553 1600.623047,138.495392 C1607.857178,139.826584 1615.005615,141.623718 1622.129761,143.262100 C1620.651978,164.342819 1606.080811,178.348145 1585.860107,181.939423 C1575.010498,183.866318 1564.157959,183.484833 1553.377075,181.040970 C1536.748901,177.271606 1525.207764,167.165176 1519.451660,151.501221 C1512.095825,131.484390 1513.047729,111.349144 1522.093994,91.839699 C1523.125122,89.616074 1524.675903,87.633377 1526.235596,85.275726 z"/><path fill="#000000" opacity="1.000000" stroke="none" d=" M485.001465,97.042419 C487.451874,101.919243 489.792267,106.441055 492.790222,112.233345 C494.903168,108.934311 496.607819,106.658875 497.910126,104.172668 C503.583038,93.342270 509.225983,82.493866 514.672119,71.548683 C515.933411,69.013863 517.277649,67.863419 520.244324,67.928482 C529.397217,68.129219 538.557373,68.001717 548.555847,68.001717 C547.511047,69.846176 546.838684,71.222237 545.998840,72.487137 C535.427734,88.409149 524.920410,104.374985 514.165833,120.172379 C512.127441,123.166611 512.331604,125.116058 514.322144,127.997314 C525.650391,144.394806 536.751648,160.949173 547.922241,177.455505 C548.264343,177.961044 548.520691,178.524658 549.296570,179.929489 C538.556213,179.929489 528.495667,180.014404 518.441528,179.798828 C517.430237,179.777145 516.151978,178.100662 515.515015,176.914352 C509.031891,164.840698 502.683960,152.694473 496.210480,140.615570 C495.505493,139.300125 494.249573,138.279953 493.249207,137.122803 C492.200470,138.299271 490.852509,139.320648 490.149902,140.676468 C483.992462,152.558578 478.034027,164.544754 471.773407,176.371338 C470.939667,177.946335 468.778625,179.776642 467.176910,179.830093 C457.531433,180.151932 447.869781,179.989990 437.143158,179.989990 C441.678680,173.098755 445.742249,166.837784 449.893799,160.635696 C457.314575,149.549713 464.683380,138.425995 472.315460,127.486595 C474.171783,124.825905 474.102570,123.137276 472.292023,120.485619 C461.518707,104.707550 450.969971,88.776123 440.352966,72.891396 C439.457153,71.551064 438.614105,70.175438 437.255402,68.046806 C448.079681,68.046806 458.152679,67.922707 468.214325,68.204277 C469.468536,68.239380 471.049561,70.214684 471.820740,71.645790 C476.286987,79.934067 480.555786,88.328728 485.001465,97.042419 z"/><path fill="#000000" opacity="1.000000" stroke="none" d=" M1263.999878,49.146378 C1264.000000,55.445091 1264.000000,61.262680 1264.000000,67.824158 C1273.635132,67.824158 1282.997559,67.824158 1292.672363,67.824158 C1292.672363,75.797501 1292.672363,83.028275 1292.672363,90.831833 C1283.295410,90.831833 1274.053101,90.831833 1264.298950,90.831833 C1264.181030,93.127304 1264.014526,94.887627 1264.012085,96.648178 C1263.991333,111.799667 1264.071167,126.951637 1263.978882,142.102585 C1263.898438,155.302170 1273.487915,158.206177 1282.434326,156.664841 C1286.092896,156.034531 1289.610962,154.588425 1293.579590,153.397369 C1293.579590,161.900162 1293.579590,170.429565 1293.579590,179.416199 C1282.406860,182.965088 1270.769409,184.626175 1259.019897,181.409592 C1245.875366,177.811096 1238.939209,168.049911 1238.199219,154.898911 C1237.108276,135.514053 1237.331665,116.055122 1237.004517,96.627586 C1236.971436,94.664314 1237.000000,92.700005 1237.000000,90.167740 C1231.629028,90.167740 1226.718750,90.167740 1221.408936,90.167740 C1221.408936,82.709976 1221.408936,75.808838 1221.408936,68.506004 C1226.317505,68.098778 1231.341309,67.522324 1236.380493,67.305420 C1242.327271,67.049431 1244.076782,63.038116 1244.948120,58.213852 C1245.822754,53.372032 1246.502319,48.494995 1247.315063,43.330177 C1252.682129,43.330177 1257.932495,43.330177 1263.729736,43.330177 C1263.821411,45.141178 1263.910645,46.903217 1263.999878,49.146378 z"/><path fill="#000000" opacity="1.000000" stroke="none" d=" M1337.000000,99.789787 C1337.000122,102.044739 1337.000122,103.828819 1337.000122,105.612892 C1337.456787,105.774841 1337.913330,105.936790 1338.369995,106.098732 C1338.907715,105.253632 1339.732788,104.472855 1339.938599,103.553467 C1341.982300,94.425468 1343.545044,85.240532 1349.110596,77.229691 C1354.708740,69.171638 1362.605225,66.067116 1371.774780,65.023010 C1373.090820,64.873161 1374.438477,64.999992 1375.771484,65.000137 C1386.299927,65.001251 1386.403320,65.005783 1385.958374,75.379448 C1385.682129,81.820831 1385.035034,88.246315 1384.513184,95.229836 C1382.067017,94.838303 1379.429443,94.452675 1376.805176,93.990219 C1358.614746,90.784462 1349.678589,101.267433 1345.303223,114.079811 C1342.739990,121.585579 1341.552979,129.799377 1341.179321,137.761917 C1340.532837,151.538834 1341.000000,165.368027 1341.000000,179.586273 C1331.711304,179.586273 1322.807373,179.586273 1313.449463,179.586273 C1313.449463,142.661652 1313.449463,105.647270 1313.449463,68.315628 C1321.159790,68.315628 1328.727905,68.315628 1337.000000,68.315628 C1337.000000,78.778564 1337.000000,89.048737 1337.000000,99.789787 z"/><path fill="#000000" opacity="1.000000" stroke="none" d=" M1905.661255,98.665756 C1907.833252,88.656830 1910.454712,79.223747 1918.156616,72.431244 C1926.765747,64.838432 1937.189697,63.896851 1947.979370,65.667404 C1949.172607,65.863205 1950.883301,68.318985 1950.850220,69.690376 C1950.643066,78.284691 1950.009277,86.868729 1949.544556,94.967590 C1943.817749,94.446327 1937.889282,92.924103 1932.219604,93.594040 C1920.206787,95.013504 1913.941772,103.545456 1910.051270,114.199547 C1907.253784,121.860298 1905.711060,129.655106 1905.909546,137.922363 C1906.240723,151.702087 1906.000000,165.495560 1906.000000,179.638947 C1896.604736,179.638947 1887.705566,179.638947 1878.400879,179.638947 C1878.400879,142.694107 1878.400879,105.808250 1878.400879,68.460510 C1885.977539,68.460510 1893.663086,68.460510 1902.051514,68.460510 C1902.051514,80.899872 1902.051514,93.241661 1902.051514,105.583450 C1902.666260,105.687035 1903.281128,105.790619 1903.895874,105.894203 C1904.421265,103.610474 1904.946533,101.326744 1905.661255,98.665756 z"/><path fill="#21C25C" opacity="1.000000" stroke="none" d=" M1978.117188,163.708511 C1979.313354,176.400925 1974.115601,181.639893 1961.329346,182.876907 C1954.133423,183.573090 1947.103271,182.333862 1943.326660,175.148529 C1939.983643,168.787949 1940.705200,155.660324 1948.323120,152.606537 C1956.046997,149.510239 1964.088257,149.903320 1971.589600,152.869522 C1975.559814,154.439392 1978.239258,158.371674 1978.117188,163.708511 z"/><path fill="#000101" opacity="1.000000" stroke="none" d=" M72.428436,104.403313 C73.847382,103.793060 74.891205,103.195992 76.012436,102.945900 C81.929131,101.626137 83.109528,94.696922 80.849266,90.011696 C78.196030,84.511902 75.941811,78.795998 73.920868,73.031372 C73.415627,71.590179 73.915176,69.137070 74.910172,67.954361 C77.795036,64.525230 81.283081,61.611549 84.307037,58.288670 C86.429131,55.956806 88.531914,55.573708 91.388382,56.811317 C96.882050,59.191525 102.480904,61.329247 108.038948,63.560501 C114.224930,66.043839 117.667526,64.640984 120.189285,58.613857 C122.552208,52.966362 125.095421,47.384560 127.196220,41.641048 C128.330627,38.539639 130.152664,37.729012 133.207413,37.906906 C137.192261,38.138962 141.232574,38.275536 145.189957,37.872784 C148.893265,37.495892 150.542053,39.162159 151.768478,42.270290 C154.079163,48.126328 156.632278,53.886227 159.034546,59.706745 C161.041031,64.568222 164.276642,66.068428 169.237274,64.119560 C175.430237,61.686546 181.622635,59.234619 187.697769,56.527210 C190.325851,55.355991 192.132812,55.357338 194.166855,57.672417 C197.888718,61.908535 204.103729,65.363625 205.197983,70.089401 C206.224503,74.522659 201.983307,80.181267 200.040619,85.293289 C199.390671,87.003525 198.678619,88.690117 197.998611,90.388985 C195.293884,97.146301 196.498367,100.074043 203.043365,102.784698 C208.730652,105.140137 214.483643,107.364120 220.023788,110.028404 C221.383850,110.682465 222.032196,112.823929 222.989670,114.293358 C223.065979,114.410484 223.002640,114.620056 223.000519,114.786621 C222.926636,120.602287 224.980392,127.932899 222.207779,131.827621 C219.146072,136.128448 211.557541,137.081360 206.139221,139.877167 C202.919693,141.538406 199.866425,143.705307 197.201233,146.149521 C196.364227,146.917130 196.552155,149.506378 197.094299,150.953354 C199.598206,157.636459 202.567734,164.148666 204.949646,170.871216 C205.492447,172.403107 204.993134,175.104645 203.906677,176.290314 C192.335846,188.917801 192.276993,188.862869 176.261871,182.514023 C175.488876,182.207581 174.668228,182.003586 173.927902,181.635101 C163.340744,176.365601 160.944580,179.360504 157.070145,189.125626 C155.721603,192.524475 153.874786,195.800018 153.055817,199.318161 C151.611435,205.522720 147.788391,206.359283 142.134888,206.172531 C129.155380,205.743744 129.145340,206.037079 124.145668,194.325958 C122.773926,191.112823 121.431976,187.886673 120.028595,184.687439 C117.829056,179.673218 113.934235,178.109482 108.816833,180.211090 C102.815125,182.675873 96.904587,185.389359 90.797935,187.553116 C89.261940,188.097366 86.587570,187.562363 85.367149,186.476868 C81.148804,182.724884 75.102776,179.028854 74.014664,174.325500 C72.952515,169.734390 77.089333,163.925781 78.994392,158.669983 C79.787880,156.480896 80.813438,154.373337 81.556213,152.168976 C83.091827,147.611710 81.287308,143.481903 76.919113,141.618622 C69.735092,138.554214 62.512413,135.580429 55.003754,132.442108 C55.003754,126.572495 54.863514,120.581337 55.115356,114.606720 C55.169407,113.324379 56.356308,111.520020 57.510803,110.953407 C62.267639,108.618813 67.212990,106.668312 72.428436,104.403313 M158.443985,147.015076 C170.920105,137.720734 172.557465,122.796089 168.267715,109.874191 C164.223785,97.692780 152.659210,90.900604 137.394684,91.029274 C117.587776,91.196228 101.889915,111.815331 109.434036,132.250092 C116.439880,151.226852 137.884689,161.121521 158.443985,147.015076 z"/><path fill="#21C35D" opacity="1.000000" stroke="none" d=" M158.159302,147.238022 C137.884689,161.121521 116.439880,151.226852 109.434036,132.250092 C101.889915,111.815331 117.587776,91.196228 137.394684,91.029274 C152.659210,90.900604 164.223785,97.692780 168.267715,109.874191 C172.557465,122.796089 170.920105,137.720734 158.159302,147.238022 z"/></g></svg>