<?xml version="1.0" encoding="utf-8"?>
<svg xmlns="http://www.w3.org/2000/svg" viewBox="19.8614 2.3753 1958.5774 239.0343" width="1958.58px" height="239.034px" preserveAspectRatio="none"><g id="object-18" transform="matrix(1, 0, 0, 1, 0, -2.842170943040401e-14)"><path fill="#21C45D" opacity="1.000000" stroke="none" d=" M255.876801,94.234589 C263.917786,130.768600 257.254730,164.201477 235.327988,193.750992 C216.144974,219.602921 190.026138,235.508957 157.842957,240.002396 C114.300285,246.081863 77.522453,232.432495 48.420147,199.630264 C32.520283,181.708954 23.839943,160.203583 20.850489,136.280594 C17.894396,112.624565 21.531145,89.986130 32.211552,69.037643 C50.650265,32.872063 80.234924,10.657205 120.541580,4.081159 C151.592194,-0.984759 180.717041,5.207102 206.779724,22.994696 C232.042450,40.236313 248.420929,64.014099 255.876801,94.234589 M114.677284,179.749908 C120.695168,181.024612 120.521187,186.835617 122.641045,190.869827 C125.180634,195.702805 125.972710,202.718369 129.836639,205.236786 C133.727280,207.772629 140.467682,205.789246 145.941635,206.099518 C149.077667,206.277313 150.761017,205.253159 151.877274,202.255508 C154.139618,196.180145 156.732391,190.225937 159.259811,184.251770 C161.216690,179.626205 164.911880,178.142563 169.704346,179.967972 C172.034546,180.855530 174.330414,181.833893 176.666153,182.705994 C181.627029,184.558304 187.120728,188.591522 191.433228,187.589035 C196.031036,186.520203 199.427277,180.571014 203.525620,176.953583 C205.868118,174.885956 206.345398,172.959641 205.007126,170.036346 C202.239410,163.990616 199.793869,157.794754 197.308777,151.623215 C195.664505,147.539810 197.258240,143.682800 201.281509,141.923401 C207.528854,139.191406 213.914474,136.748505 220.014740,133.725494 C221.635712,132.922211 223.251892,130.535233 223.441467,128.725708 C223.924683,124.113335 223.883072,119.390129 223.451355,114.767334 C223.295288,113.096169 221.784027,110.848145 220.284271,110.128960 C214.143417,107.184196 207.755127,104.758873 201.483948,102.081337 C197.125488,100.220444 195.611374,96.506737 197.325165,92.036743 C198.158493,89.863228 199.122223,87.739265 199.938904,85.559891 C201.910370,80.298943 206.131241,74.520035 205.127151,69.885475 C204.111237,65.196320 197.903107,61.632042 193.969055,57.575310 C193.853134,57.455772 193.749817,57.260685 193.613983,57.233379 C191.894409,56.887764 189.910782,55.849308 188.491211,56.362228 C182.085220,58.676891 175.906647,61.623196 169.493164,63.913597 C167.562424,64.603111 164.150803,64.805283 163.130325,63.678921 C160.377075,60.640030 158.303314,56.889912 156.409180,53.191910 C153.915237,48.322857 153.117157,41.194851 149.255402,38.795540 C145.135788,36.236008 138.284286,38.237869 132.647415,37.890949 C129.541382,37.699783 128.219345,39.034531 127.194489,41.695389 C124.863617,47.747070 122.444435,53.777958 119.703133,59.650166 C118.894264,61.382858 117.092941,62.898155 115.390549,63.920429 C110.795624,66.679649 107.229935,62.777294 103.304298,61.536949 C97.947586,59.844448 92.239365,55.474415 87.569878,56.459923 C82.874832,57.450825 79.347908,63.687725 75.150536,67.448822 C73.091072,69.294228 72.741287,70.969444 73.887535,73.529282 C76.537254,79.446709 79.058250,85.439575 81.219467,91.547615 C81.910713,93.501244 81.738113,96.022141 81.212662,98.093742 C79.842934,103.493904 74.276260,103.106697 70.517921,105.148621 C65.745071,107.741714 58.821758,108.661278 56.339081,112.547150 C53.820038,116.489922 55.700775,123.172401 55.415737,128.642563 C55.263233,131.569153 56.231918,133.151291 59.067436,134.201797 C64.833115,136.337860 70.467438,138.832443 76.133842,141.231384 C81.816727,143.637299 83.419167,147.400055 81.189384,153.060852 C78.812302,159.095627 76.254539,165.064377 74.085938,171.172119 C73.602806,172.532822 73.836166,174.841034 74.718483,175.888504 C86.277199,189.610596 86.321762,189.574326 102.799965,182.770874 C105.105721,181.818893 107.362801,180.723312 109.724525,179.942612 C111.058861,179.501526 112.560669,179.567047 114.677284,179.749908 z" id="object-0"/><path fill="#FCFCFC" opacity="1.000000" stroke="none" d=" M675.688171,124.041473 C674.987488,139.900696 672.462219,154.611465 663.108215,167.655975 C649.346680,186.846924 608.998169,191.323883 596.262329,162.100159 C594.873840,158.914246 593.667908,155.643341 592.152588,152.520905 C591.564880,151.309753 590.353394,150.401337 588.649292,149.949631 C589.991760,160.680099 591.866028,171.377869 592.528259,182.150146 C593.200562,193.085541 592.676758,204.094452 592.676758,215.435944 C583.475342,215.435944 574.591858,215.435944 565.376343,215.435944 C565.376343,166.475311 565.376343,117.575584 565.376343,68.332489 C572.731506,68.332489 580.103760,68.332489 587.917297,68.332489 C587.917297,78.259689 587.917297,88.022026 587.917297,97.784355 C588.440979,98.020882 588.964661,98.257401 589.488342,98.493927 C590.317993,97.179184 591.286133,95.930717 591.952942,94.537987 C594.570862,89.070335 596.536194,83.200195 599.776001,78.140358 C605.350342,69.434380 614.147339,65.909485 624.209045,65.119774 C652.626465,62.889389 669.037659,81.031235 673.759888,106.311554 C674.820618,111.990173 675.066956,117.820923 675.688171,124.041473 M592.695435,123.522453 C592.175171,134.295654 595.739380,143.557465 602.536682,151.883377 C611.942993,163.405151 631.430481,163.158798 639.317200,150.668243 C649.436279,134.642242 648.972534,117.480911 641.307800,100.885719 C635.685669,88.713005 621.196960,84.588188 609.559387,90.974152 C597.278015,97.713371 592.945312,109.161369 592.695435,123.522453 z" id="object-1"/><path fill="#FCFCFC" opacity="1.000000" stroke="none" d=" M1665.904053,139.085861 C1665.903931,152.861465 1665.903931,166.144089 1665.903931,179.689178 C1656.830200,179.689178 1648.252319,179.689178 1639.360962,179.689178 C1639.360962,129.021057 1639.360962,78.469231 1639.360962,27.584095 C1647.994385,27.584095 1656.572388,27.584095 1665.608398,27.584095 C1665.608398,55.493870 1665.608398,83.396751 1665.608398,113.130310 C1672.126953,108.134819 1677.734741,104.281303 1682.828125,99.838203 C1692.384155,91.502289 1700.364624,81.785660 1706.901489,70.875755 C1707.674805,69.585083 1709.504272,68.155304 1710.877930,68.120529 C1720.353882,67.880692 1729.838989,67.994308 1740.083862,67.994308 C1734.199463,80.994324 1726.760986,91.918449 1716.449219,101.131279 C1706.349487,110.154678 1694.253418,115.206573 1680.511475,119.694572 C1688.760986,120.441353 1695.389771,120.424889 1701.736328,121.755241 C1712.198975,123.948402 1719.781372,130.793045 1725.377197,139.541733 C1733.261108,151.867676 1738.330933,165.498764 1742.843506,179.718246 C1732.709595,179.718246 1722.940674,179.718246 1713.291016,179.718246 C1709.246948,170.354874 1705.534424,160.834488 1701.065552,151.683548 C1696.962158,143.281097 1691.038330,136.272217 1681.170288,134.484634 C1676.480835,133.635147 1671.611084,133.780182 1666.157593,133.432190 C1666.057861,135.461090 1665.980957,137.026993 1665.904053,139.085861 z" id="object-2"/><path fill="#FBFBFB" opacity="1.000000" stroke="none" d=" M384.762482,129.689026 C373.652496,129.689789 363.020233,129.689789 352.440918,129.689789 C350.866638,146.169327 361.190125,160.433731 377.745850,162.050354 C392.614746,163.502243 400.335785,158.845261 406.590302,145.552750 C407.071014,144.531097 408.830688,143.239822 409.722809,143.420685 C416.986420,144.893295 424.184937,146.686966 431.628815,148.435898 C427.683350,165.931442 417.172272,176.638611 400.172791,180.830841 C385.311523,184.495728 370.375366,184.079498 356.131714,178.549026 C337.097565,171.158524 327.750854,155.877029 325.318695,136.280472 C323.653900,122.866714 324.962433,109.658455 330.061432,96.838638 C337.213989,78.855698 355.653351,65.660393 374.939117,65.083702 C385.708496,64.761673 396.233551,65.531464 405.845154,70.825867 C418.798279,77.960876 425.703949,89.640839 428.646973,103.642883 C430.067383,110.400589 430.073944,117.457245 430.691223,124.381172 C430.984467,127.670547 429.762909,129.084518 426.140991,129.005035 C416.482758,128.793076 406.815002,128.918793 397.152618,129.037552 C393.179718,129.086395 389.210876,129.461563 384.762482,129.689026 M354.828979,113.205246 C371.509430,113.205246 388.189880,113.205246 405.127625,113.205246 C404.148834,104.522598 402.105103,97.128502 395.704956,92.213730 C387.956818,86.263832 379.093872,85.119392 369.949524,88.839363 C360.181549,92.813026 355.522888,100.978165 352.985107,110.645737 C352.802887,111.339905 353.581207,112.286232 354.828979,113.205246 z" id="object-3"/><path fill="#FBFBFB" opacity="1.000000" stroke="none" d=" M1097.592529,181.458557 C1074.217773,176.366257 1059.909424,159.922638 1056.993896,136.088165 C1055.060547,120.282455 1057.158447,105.331062 1064.608398,91.302216 C1072.950195,75.593964 1086.540161,67.216438 1103.926147,65.334686 C1114.021606,64.242012 1124.113281,64.915779 1133.750000,69.070351 C1149.787354,75.984451 1157.563721,89.084274 1160.655640,105.310753 C1162.070801,112.738441 1161.870728,120.473930 1162.477051,129.121628 C1135.638672,129.121628 1109.600708,129.121628 1083.566772,129.121628 C1083.733887,155.526169 1106.162720,170.189209 1127.674683,158.993011 C1133.032104,156.204636 1136.153687,151.574310 1138.002197,146.138275 C1138.945923,143.363205 1140.127563,142.931290 1142.733765,143.590714 C1148.176758,144.968002 1153.670532,146.176147 1159.189209,147.210205 C1162.696045,147.867294 1163.429810,149.541229 1162.354370,152.787903 C1156.710815,169.824997 1144.576904,179.438171 1127.234009,181.615082 C1117.637695,182.819656 1107.747803,181.686417 1097.592529,181.458557 M1088.866089,113.204124 C1104.591309,113.204124 1120.316528,113.204124 1135.987305,113.204124 C1136.671387,99.042946 1126.753784,87.805031 1113.592285,86.907196 C1098.828491,85.900063 1086.238403,97.118065 1084.549316,112.957619 C1085.691895,113.044189 1086.828613,113.130325 1088.866089,113.204124 z" id="object-4"/><path fill="#FBFBFB" opacity="1.000000" stroke="none" d=" M787.593994,85.390991 C795.690796,98.849083 797.563232,113.231033 796.550049,129.016052 C783.292725,129.016052 770.208130,129.016052 757.123596,129.016052 C744.198059,129.016052 731.272583,129.016052 718.422302,129.016052 C717.546082,144.889069 725.922791,157.333786 738.310547,160.903351 C754.795898,165.653671 766.214966,160.042801 774.164856,143.013840 C781.929077,144.768738 789.770142,146.541000 797.858826,148.369232 C794.076904,165.185898 784.121460,175.900177 768.190735,180.425659 C753.688904,184.545212 738.928711,184.029526 724.578735,179.309845 C709.390015,174.314285 698.960632,163.825256 694.446106,148.664795 C688.024170,127.099297 689.274109,105.923172 702.107056,86.643181 C711.129089,73.088707 724.360291,66.232521 740.494385,65.193352 C752.942993,64.391548 765.223999,65.420464 775.601379,73.232323 C780.005859,76.547890 783.467834,81.115410 787.593994,85.390991 M749.118530,86.924843 C732.178406,86.701538 721.442932,95.986420 719.228149,112.864151 C736.462219,112.864151 753.681335,112.864151 770.884766,112.864151 C771.355591,99.925369 764.044128,91.001289 749.118530,86.924843 z" id="object-5"/><path fill="#FBFBFB" opacity="1.000000" stroke="none" d=" M1836.008057,143.308228 C1843.454102,145.038116 1850.504028,146.704224 1857.517212,148.361618 C1855.376953,163.915466 1843.538818,176.711243 1827.597046,180.687393 C1813.276978,184.259125 1798.843994,184.052231 1784.895752,179.455200 C1768.668701,174.107056 1758.128906,162.601807 1753.821411,146.047562 C1748.276611,124.738281 1749.941895,104.173973 1762.896851,85.683205 C1772.025024,72.654228 1785.122559,66.124718 1800.935913,65.161674 C1814.327148,64.346146 1827.067505,66.121567 1838.074219,74.786880 C1848.434692,82.943649 1853.530029,94.069878 1855.640381,106.589729 C1856.839355,113.702431 1856.713745,121.038399 1857.233032,129.016678 C1843.228638,129.016678 1830.128418,129.016678 1817.028076,129.016678 C1804.108032,129.016678 1791.187866,129.016678 1777.823730,129.016678 C1778.567017,141.958405 1781.846924,152.428650 1792.638062,158.306870 C1803.569458,164.261566 1815.082520,164.303177 1825.426270,156.796677 C1828.650391,154.456833 1830.197998,149.844101 1832.628052,146.351929 C1833.438110,145.187637 1834.606934,144.273071 1836.008057,143.308228 M1801.500000,113.153839 C1811.269043,113.153839 1821.037964,113.153839 1830.752075,113.153839 C1831.825317,99.963402 1822.095703,88.384872 1809.243164,86.932365 C1794.149048,85.226540 1781.792480,95.823280 1779.158081,113.154572 C1786.313354,113.154572 1793.406738,113.154572 1801.500000,113.153839 z" id="object-6"/><path fill="#FBFBFB" opacity="1.000000" stroke="none" d=" M1448.821899,114.104126 C1452.333252,113.444901 1455.426025,112.888252 1458.480103,112.167473 C1466.290771,110.324051 1469.013184,105.461090 1466.698364,97.698608 C1464.969727,91.902054 1460.961426,88.038132 1455.253784,87.173019 C1440.462646,84.931137 1425.629639,89.139534 1421.304077,107.482216 C1413.786011,105.196449 1406.252075,103.034309 1398.857544,100.469872 C1398.070679,100.196991 1397.419312,97.335152 1397.855347,96.071037 C1402.781982,81.786324 1412.561035,72.257729 1427.054810,68.037552 C1442.033325,63.676186 1457.154419,63.196484 1471.970337,68.789062 C1485.993774,74.082581 1491.986572,85.515259 1493.754761,99.495155 C1494.647095,106.549995 1494.620605,113.730797 1494.834106,120.859901 C1495.419800,140.414444 1495.912720,159.971771 1496.448120,179.738953 C1489.011597,179.738953 1481.062744,179.738953 1472.492920,179.738953 C1471.639282,171.306671 1470.779053,162.809036 1469.918823,154.311401 C1469.545166,154.015335 1469.171387,153.719284 1468.797729,153.423233 C1467.718994,154.747314 1466.343140,155.925278 1465.608765,157.418701 C1459.942871,168.939957 1451.659790,177.656433 1439.023315,181.113159 C1426.895630,184.430725 1415.096436,183.965927 1404.493896,175.965988 C1397.623535,170.781982 1394.714844,163.573669 1394.203979,155.393875 C1393.022827,136.485703 1399.180664,127.010239 1417.526367,121.185951 C1427.549072,118.004013 1438.082642,116.430702 1448.821899,114.104126 M1442.736938,161.861649 C1457.156128,157.198135 1472.237427,143.891220 1467.654297,125.488342 C1459.090942,127.081886 1450.504761,128.478760 1442.020264,130.338593 C1437.393921,131.352707 1432.740967,132.721146 1428.455688,134.699982 C1422.387451,137.502151 1419.896729,142.850052 1420.881470,149.905579 C1421.713745,155.870865 1425.180664,159.981750 1431.108765,161.268906 C1434.595093,162.025864 1438.290527,161.819199 1442.736938,161.861649 z" id="object-7"/><path fill="#FCFCFC" opacity="1.000000" stroke="none" d=" M847.669678,115.896011 C847.031372,120.731201 846.030762,125.143196 845.968262,129.568451 C845.758911,144.388031 845.884705,159.212372 845.882263,174.034882 C845.882019,175.829880 845.882263,177.624878 845.882263,179.678848 C836.517273,179.678848 827.635559,179.678848 818.501282,179.678848 C818.501282,142.500076 818.501282,105.599434 818.501282,68.343834 C826.033264,68.343834 833.442444,68.343834 841.272156,68.343834 C841.272156,79.389030 841.272156,90.570808 841.272156,101.752579 C841.657898,102.000565 842.043640,102.248558 842.429382,102.496544 C843.321777,101.187370 844.463013,99.982307 845.062134,98.550423 C847.284973,93.237938 848.895203,87.626175 851.528503,82.537117 C857.483948,71.027794 867.711182,66.045403 880.235046,65.116974 C892.250549,64.226242 903.106628,66.919014 911.319519,76.290787 C917.624268,83.485085 921.125610,92.413788 921.533752,101.679253 C922.673462,127.552284 922.868774,153.466919 923.443481,179.669312 C913.541382,179.669312 904.648560,179.669312 895.171143,179.669312 C895.171143,176.561432 895.173096,173.612091 895.170837,170.662750 C895.157715,153.175583 895.490662,135.677582 894.945312,118.207008 C894.749023,111.918457 893.084717,105.467133 890.964966,99.489159 C886.027771,85.565628 867.303345,86.407364 859.546021,93.574409 C853.075256,99.552719 849.557068,107.036964 847.669678,115.896011 z" id="object-8"/><path fill="#FBFBFB" opacity="1.000000" stroke="none" d=" M1041.899902,145.227814 C1043.523682,163.633148 1032.284302,175.773010 1014.798523,180.225677 C998.427673,184.394455 981.915283,184.373367 965.791260,178.784119 C953.709595,174.596100 944.707642,167.054306 941.832825,153.902390 C941.567993,152.690857 942.166809,150.333817 942.982483,149.994583 C949.340698,147.350296 955.850281,145.070145 962.431519,142.633667 C966.563171,157.382431 978.041138,161.194733 990.830322,161.829849 C997.073608,162.139893 1003.557922,160.444016 1009.706238,158.805191 C1013.726562,157.733597 1016.112671,154.360855 1016.203857,149.758301 C1016.296143,145.099701 1014.032471,142.004272 1009.852844,140.721130 C1000.715515,137.916000 991.427185,135.605408 982.273071,132.851654 C975.178589,130.717484 968.030762,128.613159 961.197693,125.790848 C949.935730,121.139198 943.666870,112.542534 943.268738,100.164131 C942.849060,87.116180 948.515503,76.763771 960.108154,71.493507 C982.039246,61.523186 1004.247742,61.583534 1025.182983,74.638351 C1033.028931,79.530960 1037.492310,87.408310 1039.108521,97.267159 C1031.611084,99.698647 1024.303955,102.068451 1017.012817,104.433083 C1010.688354,87.093719 989.677307,80.107079 974.053223,89.746742 C967.553162,93.757088 967.355713,103.279457 974.409546,106.140495 C983.051392,109.645653 992.385071,111.408646 1001.322815,114.231255 C1010.432129,117.108009 1019.784668,119.595268 1028.364502,123.659409 C1036.725708,127.619987 1041.492065,135.092148 1041.899902,145.227814 z" id="object-9"/><path fill="#FBFBFB" opacity="1.000000" stroke="none" d=" M1602.651855,74.376068 C1612.159546,80.882401 1616.255249,90.262093 1619.086182,101.143761 C1610.613403,103.802979 1602.362183,106.392685 1594.400391,108.891563 C1592.097290,104.042511 1590.720825,98.876686 1587.646973,95.088005 C1577.508789,82.592384 1556.497437,84.603065 1548.899902,98.937508 C1540.585815,114.623413 1540.322388,131.116501 1547.534058,147.289474 C1553.052124,159.664139 1564.194580,162.704254 1574.047852,161.797623 C1587.885254,160.524399 1594.379150,154.125244 1597.348511,141.272766 C1597.603271,140.169876 1599.715088,138.531342 1600.672119,138.709595 C1607.637817,140.007156 1614.528564,141.706772 1621.894287,143.381943 C1621.666260,151.727219 1618.694214,158.896622 1613.839844,165.324036 C1605.851440,175.901566 1594.696655,180.794342 1581.901245,182.278030 C1567.480591,183.950211 1553.318481,182.971878 1540.340576,175.760132 C1526.485229,168.060776 1519.233398,155.426971 1516.407471,140.360321 C1513.676880,125.801537 1514.547852,111.349579 1520.013672,97.292175 C1527.573608,77.849258 1543.809937,67.043274 1563.530762,65.266808 C1575.547485,64.184311 1587.458374,65.038780 1598.272461,71.382393 C1599.692993,72.215576 1601.017822,73.211731 1602.651855,74.376068 z" id="object-10"/><path fill="#FBFBFB" opacity="1.000000" stroke="none" d=" M439.384644,68.028214 C448.420074,67.995392 457.085968,68.107246 465.745575,67.924385 C468.637207,67.863319 470.189545,68.804184 471.491394,71.418625 C477.541016,83.567932 483.771973,95.627861 490.054657,107.658882 C490.738403,108.968208 492.173462,109.885208 493.260010,110.984192 C494.229858,109.933334 495.483734,109.031525 496.125610,107.808525 C502.514404,95.635422 508.736603,83.374321 515.206787,71.245232 C515.962036,69.829338 517.903320,68.175873 519.338745,68.133873 C528.811646,67.856773 538.296570,67.990700 548.669861,67.990700 C542.091736,77.877235 535.914734,87.165092 529.733276,96.449997 C524.418701,104.432816 519.226562,112.501930 513.713013,120.344978 C511.762329,123.119797 511.953186,125.065910 513.810303,127.767181 C525.047058,144.111267 536.109375,160.575241 547.227295,177.000992 C547.677307,177.665863 548.100220,178.349121 549.140137,179.960144 C541.522156,179.960144 534.654419,179.960144 527.786743,179.960144 C526.120667,179.960144 524.415222,179.728729 522.796204,180.004776 C518.435303,180.748337 516.430237,178.605194 514.569641,174.880295 C508.653137,163.035675 502.318573,151.399597 496.125458,139.693573 C494.020081,135.714020 492.624237,135.536789 490.529541,139.492325 C484.173553,151.494659 477.922302,163.557510 471.933624,175.745850 C470.400330,178.866501 468.758362,180.153473 465.207642,180.048187 C456.240906,179.782333 447.260956,179.960068 437.429596,179.960068 C443.892029,170.202148 449.930389,161.020126 456.036682,151.883545 C461.554108,143.628006 467.031403,135.340988 472.772644,127.242393 C474.556091,124.726723 474.326202,123.073517 472.666595,120.636101 C461.755157,104.610794 450.994232,88.482620 440.274536,72.328033 C439.490173,71.146004 439.416626,69.492279 439.384644,68.028214 z" id="object-11"/><path fill="#FCFCFC" opacity="1.000000" stroke="none" d=" M1244.550903,61.132298 C1245.651245,55.057549 1246.562988,49.350655 1247.520996,43.355225 C1252.847900,43.355225 1258.072144,43.355225 1263.720459,43.355225 C1263.720459,51.479141 1263.720459,59.412167 1263.720459,67.815666 C1273.538696,67.815666 1282.954346,67.815666 1292.685547,67.815666 C1292.685547,75.535049 1292.685547,82.788101 1292.685547,90.586578 C1283.382568,90.586578 1273.973999,90.586578 1264.265381,90.586578 C1264.085571,92.353500 1263.846680,93.617935 1263.844971,94.882706 C1263.823242,110.712074 1263.782593,126.541756 1263.858887,142.370819 C1263.907471,152.458603 1268.894775,157.517487 1278.968872,156.991211 C1283.793579,156.739182 1288.546997,155.122040 1293.589966,154.069458 C1293.589966,162.024139 1293.589966,170.536423 1293.589966,179.272507 C1282.876953,182.474899 1272.040405,183.845779 1260.846313,181.762009 C1248.661987,179.493896 1238.860840,168.469955 1238.256226,154.339996 C1237.438599,135.233444 1237.512817,116.088646 1237.213867,96.960106 C1237.180420,94.821289 1237.209351,92.681511 1237.209351,89.992920 C1231.795166,89.992920 1226.724731,89.992920 1221.365723,89.992920 C1221.365723,82.540764 1221.365723,75.638588 1221.365723,68.516975 C1226.778687,68.105133 1232.004272,67.697647 1237.231445,67.313179 C1240.974609,67.037865 1243.404419,65.178703 1244.550903,61.132298 z" id="object-12"/><path fill="#FBFBFB" opacity="1.000000" stroke="none" d=" M1313.317139,171.891083 C1313.317139,137.143311 1313.317139,102.879623 1313.317139,68.302841 C1321.307373,68.302841 1328.844971,68.302841 1336.766968,68.302841 C1336.766968,78.959183 1336.766724,89.403152 1336.767090,99.847115 C1336.767212,101.179001 1336.606323,102.539703 1336.833252,103.832085 C1336.972290,104.624817 1337.707642,105.312874 1338.175293,106.047913 C1338.833252,105.330826 1339.863770,104.714302 1340.088989,103.880394 C1341.550293,98.467751 1342.564453,92.923164 1344.228394,87.578461 C1350.373901,67.837471 1368.098267,61.948036 1385.843628,66.717903 C1385.430664,75.973175 1385.011597,85.365234 1384.581177,95.009476 C1381.332520,94.533058 1378.254272,94.119095 1375.188721,93.625397 C1363.712280,91.777153 1354.286377,96.250015 1348.609497,106.419884 C1343.602783,115.389328 1340.892700,124.968712 1340.965088,135.329620 C1341.067505,149.965042 1340.990967,164.601715 1340.990967,179.598877 C1331.845215,179.598877 1322.944580,179.598877 1313.317139,179.598877 C1313.317139,177.246811 1313.317139,174.810974 1313.317139,171.891083 z" id="object-13"/><path fill="#FBFBFB" opacity="1.000000" stroke="none" d=" M1949.910645,81.075455 C1949.901978,86.035454 1949.901978,90.510506 1949.901978,94.789581 C1943.812744,94.182159 1938.207031,92.786102 1932.764038,93.259727 C1922.436646,94.158356 1915.695435,100.671402 1911.527222,109.821259 C1907.782104,118.042252 1905.684937,126.621193 1905.855103,135.811462 C1906.122925,150.281738 1905.926270,164.760620 1905.926270,179.597839 C1896.727295,179.597839 1887.833862,179.597839 1878.605469,179.597839 C1878.605469,142.542480 1878.605469,105.495804 1878.605469,68.217957 C1886.290039,68.217957 1893.721680,68.217957 1901.822754,68.217957 C1901.822754,80.846245 1901.822754,93.361298 1901.822754,105.876350 C1902.372681,106.012512 1902.922607,106.148674 1903.472534,106.284843 C1904.049683,104.902756 1904.852661,103.570107 1905.167603,102.130676 C1907.437622,91.756554 1909.362061,81.157372 1917.497070,73.419716 C1926.948486,64.429970 1938.347168,63.892914 1950.721436,66.334236 C1950.437378,71.381027 1950.178345,75.985771 1949.910645,81.075455 z" id="object-14"/><path fill="#21C15B" opacity="1.000000" stroke="none" d=" M1977.953613,170.889328 C1977.060425,176.597626 1973.792114,179.819550 1968.860840,181.414871 C1962.521606,183.465637 1956.088379,183.749786 1949.834961,181.217300 C1943.815552,178.779587 1940.560425,172.310043 1941.445312,165.300400 C1942.664917,155.639069 1946.103760,151.640564 1955.052856,150.365005 C1958.282715,149.904663 1961.697998,150.196747 1964.963379,150.634064 C1975.464722,152.040466 1980.016968,159.546936 1977.953613,170.889328 z" id="object-15"/><path fill="#000201" opacity="1.000000" stroke="none" d=" M114.332161,179.577148 C112.560669,179.567047 111.058861,179.501526 109.724525,179.942612 C107.362801,180.723312 105.105721,181.818893 102.799965,182.770874 C86.321762,189.574326 86.277199,189.610596 74.718483,175.888504 C73.836166,174.841034 73.602806,172.532822 74.085938,171.172119 C76.254539,165.064377 78.812302,159.095627 81.189384,153.060852 C83.419167,147.400055 81.816727,143.637299 76.133842,141.231384 C70.467438,138.832443 64.833115,136.337860 59.067436,134.201797 C56.231918,133.151291 55.263233,131.569153 55.415737,128.642563 C55.700775,123.172401 53.820038,116.489922 56.339081,112.547150 C58.821758,108.661278 65.745071,107.741714 70.517921,105.148621 C74.276260,103.106697 79.842934,103.493904 81.212662,98.093742 C81.738113,96.022141 81.910713,93.501244 81.219467,91.547615 C79.058250,85.439575 76.537254,79.446709 73.887535,73.529282 C72.741287,70.969444 73.091072,69.294228 75.150536,67.448822 C79.347908,63.687725 82.874832,57.450825 87.569878,56.459923 C92.239365,55.474415 97.947586,59.844448 103.304298,61.536949 C107.229935,62.777294 110.795624,66.679649 115.390549,63.920429 C117.092941,62.898155 118.894264,61.382858 119.703133,59.650166 C122.444435,53.777958 124.863617,47.747070 127.194489,41.695389 C128.219345,39.034531 129.541382,37.699783 132.647415,37.890949 C138.284286,38.237869 145.135788,36.236008 149.255402,38.795540 C153.117157,41.194851 153.915237,48.322857 156.409180,53.191910 C158.303314,56.889912 160.377075,60.640030 163.130325,63.678921 C164.150803,64.805283 167.562424,64.603111 169.493164,63.913597 C175.906647,61.623196 182.085220,58.676891 188.491211,56.362228 C189.910782,55.849308 191.894409,56.887764 193.613983,57.233379 C193.749817,57.260685 193.853134,57.455772 193.969055,57.575310 C197.903107,61.632042 204.111237,65.196320 205.127151,69.885475 C206.131241,74.520035 201.910370,80.298943 199.938904,85.559891 C199.122223,87.739265 198.158493,89.863228 197.325165,92.036743 C195.611374,96.506737 197.125488,100.220444 201.483948,102.081337 C207.755127,104.758873 214.143417,107.184196 220.284271,110.128960 C221.784027,110.848145 223.295288,113.096169 223.451355,114.767334 C223.883072,119.390129 223.924683,124.113335 223.441467,128.725708 C223.251892,130.535233 221.635712,132.922211 220.014740,133.725494 C213.914474,136.748505 207.528854,139.191406 201.281509,141.923401 C197.258240,143.682800 195.664505,147.539810 197.308777,151.623215 C199.793869,157.794754 202.239410,163.990616 205.007126,170.036346 C206.345398,172.959641 205.868118,174.885956 203.525620,176.953583 C199.427277,180.571014 196.031036,186.520203 191.433228,187.589035 C187.120728,188.591522 181.627029,184.558304 176.666153,182.705994 C174.330414,181.833893 172.034546,180.855530 169.704346,179.967972 C164.911880,178.142563 161.216690,179.626205 159.259811,184.251770 C156.732391,190.225937 154.139618,196.180145 151.877274,202.255508 C150.761017,205.253159 149.077667,206.277313 145.941635,206.099518 C140.467682,205.789246 133.727280,207.772629 129.836639,205.236786 C125.972710,202.718369 125.180634,195.702805 122.641045,190.869827 C120.521187,186.835617 120.695168,181.024612 114.332161,179.577148 M110.896072,135.432663 C119.779297,152.172745 138.762604,158.331223 154.527252,149.587311 C169.910889,141.054733 175.383148,121.735863 166.744537,106.456497 C158.713791,92.252327 140.927231,86.574371 126.096786,93.480621 C110.522430,100.733322 104.109932,117.771286 110.896072,135.432663 z" id="object-16"/><path fill="#21C35C" opacity="1.000000" stroke="none" d=" M110.732864,135.084381 C104.109932,117.771286 110.522430,100.733322 126.096786,93.480621 C140.927231,86.574371 158.713791,92.252327 166.744537,106.456497 C175.383148,121.735863 169.910889,141.054733 154.527252,149.587311 C138.762604,158.331223 119.779297,152.172745 110.732864,135.084381 z" id="object-17"/></g></svg>